<svg width="28" height="28" viewBox="0 0 28 28" fill="none" xmlns="http://www.w3.org/2000/svg">
<path d="M13.9984 20.3004C13.9984 21.5464 13.629 22.7645 12.9367 23.8005C12.2444 24.8365 11.2605 25.644 10.1093 26.1208C8.95817 26.5977 7.69145 26.7224 6.46937 26.4793C5.24729 26.2363 4.12474 25.6362 3.24367 24.7552C2.3626 23.8741 1.76258 22.7515 1.51949 21.5295C1.27641 20.3074 1.40117 19.0407 1.878 17.8895C2.35483 16.7383 3.16232 15.7544 4.19835 15.0621C5.23438 14.3699 6.45242 14.0004 7.69844 14.0004M13.9984 20.3004C13.9984 21.5464 14.3679 22.7645 15.0602 23.8005C15.7524 24.8365 16.7364 25.644 17.8875 26.1208C19.0387 26.5977 20.3054 26.7224 21.5275 26.4793C22.7496 26.2363 23.8721 25.6362 24.7532 24.7552C25.6343 23.8741 26.2343 22.7515 26.4774 21.5295C26.7205 20.3074 26.5957 19.0407 26.1189 17.8895C25.642 16.7383 24.8346 15.7544 23.7985 15.0621C22.7625 14.3699 21.5445 14.0004 20.2984 14.0004M13.9984 20.3004V18.2004M7.69844 14.0004C6.45242 14.0004 5.23438 13.6309 4.19835 12.9387C3.16232 12.2464 2.35483 11.2625 1.878 10.1113C1.40117 8.96012 1.27641 7.6934 1.51949 6.47132C1.76258 5.24924 2.3626 4.12669 3.24367 3.24562C4.12474 2.36455 5.24729 1.76453 6.46937 1.52145C7.69145 1.27836 8.95817 1.40312 10.1093 1.87995C11.2605 2.35678 12.2444 3.16427 12.9367 4.2003C13.629 5.23633 13.9984 6.45437 13.9984 7.70039M7.69844 14.0004H9.79844M20.2984 14.0004C21.5445 14.0004 22.7625 13.6309 23.7985 12.9387C24.8346 12.2464 25.642 11.2625 26.1189 10.1113C26.5957 8.96012 26.7205 7.6934 26.4774 6.47132C26.2343 5.24924 25.6343 4.12669 24.7532 3.24562C23.8721 2.36455 22.7496 1.76453 21.5275 1.52145C20.3054 1.27836 19.0387 1.40312 17.8875 1.87995C16.7364 2.35678 15.7524 3.16427 15.0602 4.2003C14.3679 5.23633 13.9984 6.45437 13.9984 7.70039M20.2984 14.0004H18.1984M13.9984 7.70039V9.80039M8.39844 8.40039L11.0304 11.0324M16.9664 11.0324L19.5984 8.40039M8.39844 19.6004L11.0304 16.9684M16.9664 16.9684L19.5984 19.6004" stroke="#DD4A4C" stroke-width="2.8" stroke-linecap="round" stroke-linejoin="round"/>
</svg>
