<svg width="28" height="25" viewBox="0 0 28 25" fill="none" xmlns="http://www.w3.org/2000/svg">
<path d="M6.94151e-06 10.9206C-0.0020678 8.83911 0.46097 6.78341 1.35528 4.90378C2.24959 3.02416 3.55257 1.3681 5.16901 0.0566406L7.16101 2.05064C5.30956 3.47823 3.95127 5.44942 3.27656 7.68786C2.60184 9.9263 2.64453 12.3198 3.39863 14.5327C4.15273 16.7457 5.58044 18.6672 7.48161 20.0279C9.38278 21.3885 11.6621 22.1201 14 22.1201C16.3379 22.1201 18.6172 21.3885 20.5184 20.0279C22.4196 18.6672 23.8473 16.7457 24.6014 14.5327C25.3555 12.3198 25.3982 9.9263 24.7235 7.68786C24.0487 5.44942 22.6905 3.47823 20.839 2.05064L22.831 0.0566406C24.4475 1.36805 25.7505 3.0241 26.6448 4.90374C27.5391 6.78337 28.0022 8.8391 28 10.9206C28 18.6506 21.732 24.9206 14 24.9206C6.26801 24.9206 6.94151e-06 18.6506 6.94151e-06 10.9206Z" fill="#DD4A4C"/>
</svg>
