<svg width="22" height="28" viewBox="0 0 22 28" fill="none" xmlns="http://www.w3.org/2000/svg">
<path fill-rule="evenodd" clip-rule="evenodd" d="M2.38534 2.169C2.52782 1.55302 2.87457 1.0034 3.36917 0.609569C3.86377 0.215742 4.4771 0.000897348 5.10934 0H16.8863C18.1883 0 19.3193 0.899 19.6123 2.169L21.0443 8.372C22.4273 14.37 18.2993 20.115 12.3953 20.908L12.3993 21V25.2H16.5993C16.9706 25.2 17.3267 25.3475 17.5893 25.6101C17.8518 25.8726 17.9993 26.2287 17.9993 26.6C17.9993 26.9713 17.8518 27.3274 17.5893 27.5899C17.3267 27.8525 16.9706 28 16.5993 28H5.39934C5.02803 28 4.67194 27.8525 4.40939 27.5899C4.14684 27.3274 3.99934 26.9713 3.99934 26.6C3.99934 26.2287 4.14684 25.8726 4.40939 25.6101C4.67194 25.3475 5.02803 25.2 5.39934 25.2H9.59934V21L9.60234 20.908C3.69934 20.115 -0.430662 14.37 0.954338 8.372L2.38534 2.169ZM5.11334 2.8L3.68134 9.002C2.59634 13.706 6.17134 18.2 10.9993 18.2C15.8273 18.2 19.4033 13.707 18.3173 9.002L16.8863 2.8H5.11334Z" fill="#DD4A4C"/>
</svg>
